<?xml version="1.0" encoding="UTF-8"?>
<svg id="Layer_1" xmlns="http://www.w3.org/2000/svg" version="1.1" viewBox="0 0 640 320">
  <!-- Generator: Adobe Illustrator 29.1.0, SVG Export Plug-In . SVG Version: 2.1.0 Build 142)  -->
  <defs>
    <style>
      .st0 {
        fill: #fff;
      }

      .st1 {
        fill: #878a91;
      }
    </style>
  </defs>
  <rect class="st1" width="640" height="320" rx="20" ry="20"/>
  <path class="st0" d="M576.9,279.5c0,.2-.2.3-.5.3s-.5-.1-.5-.3.2-.3.5-.3.5.1.5.3ZM574.1,279.1c0,.2,0,.4.4.4s.5,0,.5-.2,0-.4-.4-.5c-.2,0-.5,0-.5.2h0ZM578,279c-.3,0-.4.2-.4.4s.3.3.5.2c.3,0,.4-.2.4-.4s-.3-.3-.5-.3h0ZM583.8,245.1c-12.3,0-21.7,9.3-21.7,21.6s6.2,18.2,15,21.2c1.1.2,1.5-.5,1.5-1.1v-5.4s-6.2,1.3-7.5-2.6c0,0-1-2.6-2.5-3.2,0,0-2-1.4,0-1.4,0,0,2.2.2,3.4,2.3,1.9,3.4,5.2,2.4,6.5,1.9.2-1.4.8-2.4,1.4-3-4.9-.5-9.9-1.3-9.9-9.8s.7-3.7,2.1-5.2c-.2-.6-1-2.9.2-6,1.9-.6,6.1,2.4,6.1,2.4,1.8-.5,3.7-.8,5.6-.8s3.8.3,5.6.8c0,0,4.3-3,6.1-2.4,1.2,3.1.5,5.4.2,6,1.4,1.6,2.3,2.8,2.3,5.2,0,8.5-5.2,9.2-10.2,9.8.8.7,1.5,2,1.5,4.1v7.4c0,.7.4,1.3,1.5,1.1,8.9-2.9,14.9-11.3,14.9-21.2s-10-21.6-22.2-21.6h.1ZM570.8,275.6v.5c0,.1.3.2.5,0v-.5c0-.1-.3-.2-.5,0ZM569.8,274.9c0,.1,0,.3.2.3h.4c0-.1,0-.3-.2-.3h-.4ZM572.7,278v.5c.2.2.5.2.6,0v-.5c-.2-.2-.5-.2-.6,0ZM571.7,276.7v.5c0,.2.4.3.5.2v-.5c0-.2-.4-.3-.5-.2Z"/>
  <rect class="st0" x="488" y="36.7" width="116" height="116" rx="10.1" ry="10.1"/>
  <rect class="st0" x="33.9" y="36.7" width="376.4" height="21.3" rx="3.2" ry="3.2"/>
  <rect class="st0" x="33.9" y="66.6" width="205.3" height="21.3" rx="3.2" ry="3.2"/>
  <rect class="st0" x="33.9" y="116.4" width="376.4" height="80.1" rx="3.2" ry="3.2"/>
  <rect class="st0" x="33.9" y="243.5" width="45.9" height="45.9" rx="5.9" ry="5.9"/>
  <rect class="st0" x="364.4" y="243.5" width="45.9" height="45.9" rx="5.9" ry="5.9"/>
  <rect class="st0" x="153.3" y="243.5" width="45.9" height="45.9" rx="5.9" ry="5.9"/>
  <rect class="st0" x="262.8" y="243.5" width="45.9" height="45.9" rx="5.9" ry="5.9"/>
</svg>