<?xml version="1.0" encoding="UTF-8"?>
<svg id="Layer_1" xmlns="http://www.w3.org/2000/svg" version="1.1" viewBox="0 0 420 420">
  <!-- Generator: Adobe Illustrator 29.1.0, SVG Export Plug-In . SVG Version: 2.1.0 Build 142)  -->
  <defs>
    <style>
      .st0 {
        fill: #dfe3eb;
      }
    </style>
  </defs>
  <path class="st0" d="M420,0v420H0V0h420ZM373.9,231.9c6.3-33.5-2-71.3-18.4-100.9-44-79.6-145.3-108.6-225.2-64.1-58.3,32.4-93.4,100.5-82.3,167.1,18.7-2.1,37.2-2.2,56-.9-4-23.9-8.3-48.9,2.8-71.7s10.8-15,11-16-3.9-16-3.9-20.9,3.3-25.2,6.7-26.3c5.5-1.8,17.1,2,22.6,4.1s24,13.7,26.2,13.8c6.1.4,21.7-4.6,30-5.1s22-.6,31,0,19.7,4.4,24,4,9.8-6.1,12.5-7.5c6-3.1,30.5-14.6,35.5-9.5,4,4,5.9,26.5,5.5,32.5s-2.7,8.8-1.8,11.8,3.9,4,5.3,5.8c19.4,27.3,16.6,52,12.6,83.9h49.9ZM374,234h-51.4c0,0-2.6,7-2.6,7,17.9-.3,35.5-.4,53,4l1-11ZM108,242c.1-2.7-.3-6.4-3.5-7-18.9-1.2-37.7-1.2-56.5,1l2.6,11.1c18.8-3.9,38.1-5.6,57.4-5.1ZM247,282c-.4,2.6,2.6,2.9,4,4.5,17.2,19.9,7.1,49.2,10,73,.2,2.1,1.9,7.5,4.3,7.3s12.5-4.8,15.1-6c37.5-17,69.7-51.2,84.4-89.6,1.2-3.1,7.5-22.2,7.1-23.7s-1.5-1.2-2.5-1.5c-14.8-4.4-34.4-2.6-49.8-2.9-3.7,5-6.3,10.7-10.6,15.4-14.8,15.9-41.1,22.3-62,23.5ZM120,288c11.6,13.8,15.1,23.1,36.5,21,2.2-.2,13.4-3.2,14.3-4.2s2.2-7.7,3.4-10.1c2.3-4.6,6-8.3,9.8-11.7-28.2-3.7-59.5-12.1-73.7-39.1-20-.7-39.8,1.1-59.3,5.1-1.3,1.3,5.1,19.2,6.2,22.2,15.4,40.1,47.8,73.6,87.1,90.9,3.9,1.7,18.1,7.7,21.4,7.6s4.3-5.1,4.3-6.3v-33.5c-15.5,1.6-33,3.1-45.5-8s-9.7-18.5-16.1-26.9-14.2-11.6-15.7-14.3c-3-5.7,6-5.4,10.3-4.8-9,6.3,6.1,9,2,1,4,1.2,5.8,2.6,9,5-12-1-2.1,10.2,1,1,2.3,1.9,3.1,2.8,5,5-1.5.1-3.1-.3-4.5,0-7,1.3,3.9,10.3,4.5,0ZM118,299c.8,1.1,7.3,1.9,6-2.5s-8.2-.8-6,2.5ZM124.6,302.1c-5,1.5,2.7,6.8,5.4,2.4.6-2.5-3.6-2.9-5.4-2.4ZM218,306h-5c-.8,23.3,1.9,47-2,70h9c-3-23.2-1.8-46.6-2-70ZM137,308c-1.2-1.7-8.4-.6-6,4,2.6,1,8-1.1,6-4ZM167,310c-.6-.9-7.6-1.4-6,2.5s8.1.5,6-2.5ZM194,309c-3.7,0-5.5,5.6-5.9,8.6-2.4,17.7,3.8,38.9-3.1,55.9,3.9,4.1,9-.6,9-5v-59.5ZM237,309v59.5c0,6.2,4.4,5.7,9,4-6.6-16.5-.8-36.8-3.1-53.9s-3.8-12-5.9-9.6ZM147,312c-.8-1.1-7.3-1.9-6,2.5s8.2.8,6-2.5ZM157,312c-.8-1.1-7.3-1.9-6,2.5s8.2.8,6-2.5Z"/>
</svg>